<svg width="1492" height="991" viewBox="0 0 1492 991" fill="none" xmlns="http://www.w3.org/2000/svg">
<path d="M365.106 214.644C365.942 214.644 366.62 214.029 366.62 213.271C366.62 212.512 365.942 211.897 365.106 211.897C364.27 211.897 363.592 212.512 363.592 213.271C363.592 214.029 364.27 214.644 365.106 214.644Z" fill="url(#paint0_linear_204_6)"/>
<path d="M353.5 214.717C354.057 214.717 354.509 214.307 354.509 213.801C354.509 213.296 354.057 212.886 353.5 212.886C352.942 212.886 352.49 213.296 352.49 213.801C352.49 214.307 352.942 214.717 353.5 214.717Z" fill="url(#paint1_linear_204_6)"/>
<path d="M376.712 214.717C377.269 214.717 377.721 214.307 377.721 213.801C377.721 213.296 377.269 212.886 376.712 212.886C376.155 212.886 375.703 213.296 375.703 213.801C375.703 214.307 376.155 214.717 376.712 214.717Z" fill="url(#paint2_linear_204_6)"/>
<path d="M356.78 217.583C355.944 217.583 355.266 218.198 355.266 218.957C355.266 219.715 355.944 220.33 356.78 220.33C357.616 220.33 358.294 219.715 358.294 218.957C358.294 218.198 357.616 217.583 356.78 217.583Z" fill="url(#paint3_linear_204_6)"/>
<path d="M373.432 217.583C372.596 217.583 371.917 218.198 371.917 218.957C371.917 219.715 372.596 220.33 373.432 220.33C374.268 220.33 374.946 219.715 374.946 218.957C374.946 218.198 374.268 217.583 373.432 217.583Z" fill="url(#paint4_linear_204_6)"/>
<path d="M365.106 221.968C366.22 221.968 367.124 221.148 367.124 220.137C367.124 219.126 366.22 218.306 365.106 218.306C363.991 218.306 363.088 219.126 363.088 220.137C363.088 221.148 363.991 221.968 365.106 221.968Z" fill="url(#paint5_linear_204_6)"/>
<path d="M347.188 224.029C348.025 224.029 348.703 223.414 348.703 222.655C348.703 221.896 348.025 221.281 347.188 221.281C346.352 221.281 345.674 221.896 345.674 222.655C345.674 223.414 346.352 224.029 347.188 224.029Z" fill="url(#paint6_linear_204_6)"/>
<path d="M383.023 224.029C383.859 224.029 384.537 223.414 384.537 222.655C384.537 221.896 383.859 221.281 383.023 221.281C382.187 221.281 381.509 221.896 381.509 222.655C381.509 223.414 382.187 224.029 383.023 224.029Z" fill="url(#paint7_linear_204_6)"/>
<path d="M361.069 228.376C362.741 228.376 364.097 227.147 364.097 225.63C364.097 224.113 362.741 222.884 361.069 222.884C359.397 222.884 358.042 224.113 358.042 225.63C358.042 227.147 359.397 228.376 361.069 228.376Z" fill="url(#paint8_linear_204_6)"/>
<path d="M369.142 228.376C370.814 228.376 372.169 227.147 372.169 225.63C372.169 224.113 370.814 222.884 369.142 222.884C367.47 222.884 366.115 224.113 366.115 225.63C366.115 227.147 367.47 228.376 369.142 228.376Z" fill="url(#paint9_linear_204_6)"/>
<path d="M353.745 227.919C354.859 227.919 355.763 227.099 355.763 226.088C355.763 225.077 354.859 224.257 353.745 224.257C352.63 224.257 351.727 225.077 351.727 226.088C351.727 227.099 352.63 227.919 353.745 227.919Z" fill="url(#paint10_linear_204_6)"/>
<path d="M376.467 227.919C377.581 227.919 378.485 227.099 378.485 226.088C378.485 225.077 377.581 224.257 376.467 224.257C375.352 224.257 374.449 225.077 374.449 226.088C374.449 227.099 375.352 227.919 376.467 227.919Z" fill="url(#paint11_linear_204_6)"/>
<path d="M357.032 234.786C358.704 234.786 360.059 233.556 360.059 232.039C360.059 230.522 358.704 229.293 357.032 229.293C355.36 229.293 354.005 230.522 354.005 232.039C354.005 233.556 355.36 234.786 357.032 234.786Z" fill="url(#paint12_linear_204_6)"/>
<path d="M373.18 234.786C374.852 234.786 376.207 233.556 376.207 232.039C376.207 230.522 374.852 229.293 373.18 229.293C371.508 229.293 370.152 230.522 370.152 232.039C370.152 233.556 371.508 234.786 373.18 234.786Z" fill="url(#paint13_linear_204_6)"/>
<path d="M348.454 233.413C349.29 233.413 349.968 232.798 349.968 232.039C349.968 231.281 349.29 230.666 348.454 230.666C347.618 230.666 346.94 231.281 346.94 232.039C346.94 232.798 347.618 233.413 348.454 233.413Z" fill="url(#paint14_linear_204_6)"/>
<path d="M381.758 233.413C382.594 233.413 383.272 232.798 383.272 232.039C383.272 231.281 382.594 230.666 381.758 230.666C380.921 230.666 380.243 231.281 380.243 232.039C380.243 232.798 380.921 233.413 381.758 233.413Z" fill="url(#paint15_linear_204_6)"/>
<path d="M341.894 232.955C342.452 232.955 342.903 232.545 342.903 232.039C342.903 231.534 342.452 231.124 341.894 231.124C341.337 231.124 340.885 231.534 340.885 232.039C340.885 232.545 341.337 232.955 341.894 232.955Z" fill="url(#paint16_linear_204_6)"/>
<path d="M388.317 232.955C388.875 232.955 389.326 232.545 389.326 232.039C389.326 231.534 388.875 231.124 388.317 231.124C387.76 231.124 387.308 231.534 387.308 232.039C387.308 232.545 387.76 232.955 388.317 232.955Z" fill="url(#paint17_linear_204_6)"/>
<path d="M361.069 241.195C362.741 241.195 364.097 239.965 364.097 238.448C364.097 236.932 362.741 235.702 361.069 235.702C359.397 235.702 358.042 236.932 358.042 238.448C358.042 239.965 359.397 241.195 361.069 241.195Z" fill="url(#paint18_linear_204_6)"/>
<path d="M369.142 241.195C370.814 241.195 372.169 239.965 372.169 238.448C372.169 236.932 370.814 235.702 369.142 235.702C367.47 235.702 366.115 236.932 366.115 238.448C366.115 239.965 367.47 241.195 369.142 241.195Z" fill="url(#paint19_linear_204_6)"/>
<path d="M353.745 239.821C354.859 239.821 355.763 239.001 355.763 237.99C355.763 236.979 354.859 236.159 353.745 236.159C352.63 236.159 351.727 236.979 351.727 237.99C351.727 239.001 352.63 239.821 353.745 239.821Z" fill="url(#paint20_linear_204_6)"/>
<path d="M376.467 239.821C377.581 239.821 378.485 239.001 378.485 237.99C378.485 236.979 377.581 236.159 376.467 236.159C375.352 236.159 374.449 236.979 374.449 237.99C374.449 239.001 375.352 239.821 376.467 239.821Z" fill="url(#paint21_linear_204_6)"/>
<path d="M347.188 242.797C348.025 242.797 348.703 242.182 348.703 241.424C348.703 240.665 348.025 240.05 347.188 240.05C346.352 240.05 345.674 240.665 345.674 241.424C345.674 242.182 346.352 242.797 347.188 242.797Z" fill="url(#paint22_linear_204_6)"/>
<path d="M383.023 242.797C383.859 242.797 384.537 242.182 384.537 241.424C384.537 240.665 383.859 240.05 383.023 240.05C382.187 240.05 381.509 240.665 381.509 241.424C381.509 242.182 382.187 242.797 383.023 242.797Z" fill="url(#paint23_linear_204_6)"/>
<path d="M365.106 245.772C366.22 245.772 367.124 244.952 367.124 243.941C367.124 242.93 366.22 242.11 365.106 242.11C363.991 242.11 363.088 242.93 363.088 243.941C363.088 244.952 363.991 245.772 365.106 245.772Z" fill="url(#paint24_linear_204_6)"/>
<path d="M356.78 246.495C357.616 246.495 358.294 245.88 358.294 245.122C358.294 244.363 357.616 243.748 356.78 243.748C355.944 243.748 355.266 244.363 355.266 245.122C355.266 245.88 355.944 246.495 356.78 246.495Z" fill="url(#paint25_linear_204_6)"/>
<path d="M373.432 246.495C374.268 246.495 374.946 245.88 374.946 245.122C374.946 244.363 374.268 243.748 373.432 243.748C372.595 243.748 371.917 244.363 371.917 245.122C371.917 245.88 372.595 246.495 373.432 246.495Z" fill="url(#paint26_linear_204_6)"/>
<path d="M353.5 251.193C354.057 251.193 354.509 250.783 354.509 250.277C354.509 249.771 354.057 249.362 353.5 249.362C352.942 249.362 352.49 249.771 352.49 250.277C352.49 250.783 352.942 251.193 353.5 251.193Z" fill="url(#paint27_linear_204_6)"/>
<path d="M376.712 251.193C377.269 251.193 377.721 250.783 377.721 250.277C377.721 249.771 377.269 249.362 376.712 249.362C376.155 249.362 375.703 249.771 375.703 250.277C375.703 250.783 376.155 251.193 376.712 251.193Z" fill="url(#paint28_linear_204_6)"/>
<path d="M365.106 252.181C365.942 252.181 366.62 251.566 366.62 250.808C366.62 250.049 365.942 249.434 365.106 249.434C364.27 249.434 363.592 250.049 363.592 250.808C363.592 251.566 364.27 252.181 365.106 252.181Z" fill="url(#paint29_linear_204_6)"/>
<path d="M149.496 281.025C149.496 292.593 139.001 301.973 126.06 301.973C113.119 301.973 102.624 292.593 102.624 281.025C102.624 269.458 113.119 260.077 126.06 260.077C139.001 260.077 149.496 269.458 149.496 281.025Z" fill="#FFC107"/>
<path d="M118.598 291.821V270.873H128.205C131.029 270.873 133.167 271.36 134.627 272.334C136.087 273.308 136.814 274.736 136.814 276.614C136.814 277.641 136.521 278.545 135.94 279.327C135.354 280.108 134.54 280.681 133.496 281.046C134.686 281.316 135.624 281.855 136.311 282.674C136.998 283.487 137.346 284.481 137.346 285.664C137.346 287.677 136.633 289.203 135.204 290.238C133.776 291.272 131.744 291.8 129.103 291.821H118.598ZM123.285 279.252H128.397C130.815 279.216 132.028 278.389 132.028 276.692C132.028 275.743 131.721 275.059 131.108 274.642C130.495 274.225 129.528 274.015 128.205 274.015H123.285V279.252ZM123.285 282.395V288.679H128.961C130.087 288.679 132.659 288.188 132.659 285.946C132.659 283.705 131.35 282.423 129.144 282.395H123.285Z" fill="#FFF8E1"/>
<path d="M507.201 500.818L521.016 480.434L534.831 500.818L521.016 508.23L507.201 500.818Z" fill="#7880E7"/>
<path d="M521.016 480.434L534.831 500.818L521.016 508.23V480.434Z" fill="#5C64C7"/>
<path d="M507.201 503.597L521.016 511.01L534.831 503.597L521.016 521.202L507.201 503.597Z" fill="#7880E7"/>
<path d="M521.016 511.01L534.831 503.597L521.016 521.202V511.01ZM507.201 500.818L521.016 495.258L534.831 500.818L521.016 508.23L507.201 500.818Z" fill="#5C64C7"/>
<path d="M521.016 495.258L534.831 500.818L521.016 508.23V495.258Z" fill="#2A3192"/>
<path d="M516.082 349.025C526.982 349.025 535.817 340.368 535.817 329.689C535.817 319.01 526.982 310.352 516.082 310.352C505.182 310.352 496.347 319.01 496.347 329.689C496.347 340.368 505.182 349.025 516.082 349.025Z" fill="#26A69A"/>
<path d="M524.963 319.054H507.201V323.888H524.963V319.054Z" fill="white"/>
<path d="M516.082 326.788C511.684 326.788 504.241 327.501 504.241 330.172C504.241 332.844 511.684 333.556 516.082 333.556C520.48 333.556 527.923 332.844 527.923 330.172C527.923 327.501 520.48 326.788 516.082 326.788ZM516.082 331.622C510.632 331.622 506.214 330.757 506.214 329.689C506.214 328.62 510.632 327.755 516.082 327.755C521.532 327.755 525.95 328.62 525.95 329.689C525.95 330.757 521.532 331.622 516.082 331.622Z" fill="white"/>
<path d="M516.082 329.689C517.163 329.689 518.147 329.653 519.042 329.594V319.054H513.122V329.594C514.017 329.653 515.001 329.689 516.082 329.689Z" fill="white"/>
<path d="M517.782 331.591C517.673 331.595 517.562 331.598 517.451 331.601C517.002 331.614 516.548 331.622 516.082 331.622C515.616 331.622 515.162 331.614 514.713 331.602C514.602 331.599 514.491 331.596 514.382 331.592C513.953 331.578 513.53 331.56 513.122 331.534V341.291H519.042V331.533C518.634 331.559 518.211 331.577 517.782 331.591Z" fill="white"/>
<path d="M425.129 629.386H429.904L419.97 639.279C418.234 640.996 415.895 641.959 413.458 641.959C411.02 641.959 408.682 640.996 406.945 639.279L397.011 629.386H401.787L409.335 636.888C410.435 637.977 411.917 638.588 413.462 638.588C415.007 638.588 416.489 637.977 417.589 636.888L425.129 629.386Z" fill="#263238"/>
<path d="M417.589 649.962C416.489 648.873 415.007 648.262 413.462 648.262C411.917 648.262 410.435 648.873 409.335 649.962L401.787 657.464H397.011L406.945 647.571C408.681 645.854 411.02 644.891 413.458 644.891C415.895 644.891 418.234 645.854 419.97 647.571L429.904 657.464H425.129L417.589 649.962Z" fill="#263238"/>
<g clip-path="url(#clip0_204_6)">
<path d="M137.419 652.25C123.658 652.25 112.492 663.022 112.492 676.297C112.492 689.572 123.658 700.344 137.419 700.344C151.18 700.344 162.346 689.572 162.346 676.297C162.346 663.022 151.18 652.25 137.419 652.25ZM122.479 678.269V678.118C122.714 677.511 122.95 676.904 123.186 676.221C123.422 675.614 123.579 675.007 123.815 674.401C123.894 674.249 123.973 674.173 124.13 674.173H134.745C134.745 674.249 134.667 674.401 134.667 674.476L133.487 677.89C133.409 678.118 133.33 678.194 133.015 678.194H122.793C122.714 678.269 122.557 678.269 122.479 678.269V678.269ZM152.359 671.29C151.337 674.325 150.315 677.359 149.293 680.469C148.663 682.366 145.99 684.869 143.08 684.793C136.554 684.717 130.027 684.793 123.579 684.793H123.186C123.265 684.566 123.343 684.338 123.422 684.186C123.815 683.124 124.208 681.986 124.523 680.924C124.602 680.621 124.759 680.621 124.995 680.621H142.609C142.845 680.621 143.002 680.545 143.08 680.318C143.945 677.662 144.889 675.007 145.754 672.352C145.754 672.277 145.833 672.201 145.833 672.049H127.511C127.511 671.897 127.59 671.821 127.59 671.745C127.983 670.532 128.455 669.318 128.848 668.104C128.926 667.877 129.005 667.801 129.241 667.801H149.057C149.45 667.801 149.922 667.877 150.315 667.953C151.416 668.332 152.045 669.09 152.281 670.152C152.281 670.228 152.359 670.304 152.359 670.38V671.29V671.29Z" fill="#3A74BE"/>
</g>
<g clip-path="url(#clip1_204_6)">
<path d="M528.439 742.019C528.642 741.751 528.92 741.594 529.215 741.594H555.991C556.481 741.594 556.725 742.376 556.379 742.834L551.09 749.835C550.888 750.103 550.609 750.259 550.314 750.259H523.538C523.048 750.259 522.804 749.478 523.15 749.02L528.439 742.019Z" fill="url(#paint30_linear_204_6)"/>
<path d="M528.439 715.878C528.65 715.61 528.928 715.454 529.215 715.454H555.991C556.481 715.454 556.725 716.235 556.379 716.693L551.09 723.694C550.887 723.962 550.609 724.119 550.314 724.119H523.538C523.048 724.119 522.804 723.337 523.15 722.879L528.439 715.878Z" fill="url(#paint31_linear_204_6)"/>
<path d="M551.09 728.865C550.888 728.597 550.609 728.44 550.314 728.44H523.538C523.048 728.44 522.804 729.222 523.15 729.68L528.439 736.681C528.642 736.949 528.92 737.105 529.215 737.105H555.991C556.481 737.105 556.725 736.324 556.379 735.866L551.09 728.865Z" fill="url(#paint32_linear_204_6)"/>
</g>
<g clip-path="url(#clip2_204_6)">
<path d="M316.261 786.032C330.158 786.032 341.423 775.86 341.423 763.312C341.423 750.764 330.158 740.591 316.261 740.591C302.364 740.591 291.098 750.764 291.098 763.312C291.098 775.86 302.364 786.032 316.261 786.032Z" fill="#172852"/>
<path d="M311.366 750.745C314.313 749.75 317.629 749.748 320.631 750.566C324.539 751.661 327.838 754.324 329.562 757.666C330.037 758.618 330.493 759.611 330.538 760.669C328.341 759.52 325.933 758.775 323.52 758.095C319.66 756.839 315.619 755.966 311.965 754.24C311.115 753.781 310.03 753.31 309.799 752.354C309.706 751.527 310.674 751.065 311.366 750.745Z" fill="#FFD83D"/>
<path d="M302.471 758.788C303.324 756.698 304.723 754.758 306.623 753.319C307.106 756.907 308.797 760.374 311.59 762.982C314.939 766.125 319.71 768.054 324.564 767.981C326.492 768.035 328.376 767.633 330.256 767.308C328.407 773.343 321.082 777.349 314.295 776.385C310.199 775.913 306.417 773.722 304.135 770.63C301.56 767.213 300.911 762.676 302.471 758.788Z" fill="#FFD83D"/>
<path d="M323.52 758.095C325.933 758.775 328.341 759.52 330.538 760.669L330.686 760.74C330.89 762.124 331.039 763.535 330.767 764.92C329.662 764.498 328.766 763.755 327.83 763.098C326.029 761.744 324.189 760.195 323.52 758.095Z" fill="#FF6F03"/>
</g>
<defs>
<linearGradient id="paint0_linear_204_6" x1="350.121" y1="200.166" x2="383.425" y2="235.554" gradientUnits="userSpaceOnUse">
<stop stop-color="#0077D2"/>
<stop offset="1" stop-color="#0B59A2"/>
</linearGradient>
<linearGradient id="paint1_linear_204_6" x1="344.239" y1="205.702" x2="377.541" y2="241.09" gradientUnits="userSpaceOnUse">
<stop stop-color="#0077D2"/>
<stop offset="1" stop-color="#0B59A2"/>
</linearGradient>
<linearGradient id="paint2_linear_204_6" x1="355.42" y1="195.18" x2="388.723" y2="230.568" gradientUnits="userSpaceOnUse">
<stop stop-color="#0077D2"/>
<stop offset="1" stop-color="#0B59A2"/>
</linearGradient>
<linearGradient id="paint3_linear_204_6" x1="342.98" y1="206.887" x2="376.282" y2="242.275" gradientUnits="userSpaceOnUse">
<stop stop-color="#0077D2"/>
<stop offset="1" stop-color="#0B59A2"/>
</linearGradient>
<linearGradient id="paint4_linear_204_6" x1="351.001" y1="199.339" x2="384.303" y2="234.727" gradientUnits="userSpaceOnUse">
<stop stop-color="#0077D2"/>
<stop offset="1" stop-color="#0B59A2"/>
</linearGradient>
<linearGradient id="paint5_linear_204_6" x1="346.34" y1="203.725" x2="379.643" y2="239.113" gradientUnits="userSpaceOnUse">
<stop stop-color="#0077D2"/>
<stop offset="1" stop-color="#0B59A2"/>
</linearGradient>
<linearGradient id="paint6_linear_204_6" x1="336.323" y1="213.152" x2="369.625" y2="248.54" gradientUnits="userSpaceOnUse">
<stop stop-color="#0077D2"/>
<stop offset="1" stop-color="#0B59A2"/>
</linearGradient>
<linearGradient id="paint7_linear_204_6" x1="353.584" y1="196.908" x2="386.886" y2="232.296" gradientUnits="userSpaceOnUse">
<stop stop-color="#0077D2"/>
<stop offset="1" stop-color="#0B59A2"/>
</linearGradient>
<linearGradient id="paint8_linear_204_6" x1="341.37" y1="208.402" x2="374.673" y2="243.79" gradientUnits="userSpaceOnUse">
<stop stop-color="#0077D2"/>
<stop offset="1" stop-color="#0B59A2"/>
</linearGradient>
<linearGradient id="paint9_linear_204_6" x1="345.259" y1="204.742" x2="378.562" y2="240.13" gradientUnits="userSpaceOnUse">
<stop stop-color="#0077D2"/>
<stop offset="1" stop-color="#0B59A2"/>
</linearGradient>
<linearGradient id="paint10_linear_204_6" x1="337.589" y1="211.959" x2="370.893" y2="247.347" gradientUnits="userSpaceOnUse">
<stop stop-color="#0077D2"/>
<stop offset="1" stop-color="#0B59A2"/>
</linearGradient>
<linearGradient id="paint11_linear_204_6" x1="348.535" y1="201.659" x2="381.838" y2="237.047" gradientUnits="userSpaceOnUse">
<stop stop-color="#0077D2"/>
<stop offset="1" stop-color="#0B59A2"/>
</linearGradient>
<linearGradient id="paint12_linear_204_6" x1="335.895" y1="213.554" x2="369.199" y2="248.942" gradientUnits="userSpaceOnUse">
<stop stop-color="#0077D2"/>
<stop offset="1" stop-color="#0B59A2"/>
</linearGradient>
<linearGradient id="paint13_linear_204_6" x1="343.674" y1="206.234" x2="376.976" y2="241.622" gradientUnits="userSpaceOnUse">
<stop stop-color="#0077D2"/>
<stop offset="1" stop-color="#0B59A2"/>
</linearGradient>
<linearGradient id="paint14_linear_204_6" x1="331.763" y1="217.442" x2="365.067" y2="252.83" gradientUnits="userSpaceOnUse">
<stop stop-color="#0077D2"/>
<stop offset="1" stop-color="#0B59A2"/>
</linearGradient>
<linearGradient id="paint15_linear_204_6" x1="347.806" y1="202.345" x2="381.108" y2="237.733" gradientUnits="userSpaceOnUse">
<stop stop-color="#0077D2"/>
<stop offset="1" stop-color="#0B59A2"/>
</linearGradient>
<linearGradient id="paint16_linear_204_6" x1="328.604" y1="220.416" x2="361.906" y2="255.804" gradientUnits="userSpaceOnUse">
<stop stop-color="#0077D2"/>
<stop offset="1" stop-color="#0B59A2"/>
</linearGradient>
<linearGradient id="paint17_linear_204_6" x1="350.965" y1="199.372" x2="384.268" y2="234.76" gradientUnits="userSpaceOnUse">
<stop stop-color="#0077D2"/>
<stop offset="1" stop-color="#0B59A2"/>
</linearGradient>
<linearGradient id="paint18_linear_204_6" x1="334.31" y1="215.046" x2="367.614" y2="250.434" gradientUnits="userSpaceOnUse">
<stop stop-color="#0077D2"/>
<stop offset="1" stop-color="#0B59A2"/>
</linearGradient>
<linearGradient id="paint19_linear_204_6" x1="338.199" y1="211.386" x2="371.502" y2="246.774" gradientUnits="userSpaceOnUse">
<stop stop-color="#0077D2"/>
<stop offset="1" stop-color="#0B59A2"/>
</linearGradient>
<linearGradient id="paint20_linear_204_6" x1="331.034" y1="218.129" x2="364.338" y2="253.517" gradientUnits="userSpaceOnUse">
<stop stop-color="#0077D2"/>
<stop offset="1" stop-color="#0B59A2"/>
</linearGradient>
<linearGradient id="paint21_linear_204_6" x1="341.98" y1="207.828" x2="375.282" y2="243.216" gradientUnits="userSpaceOnUse">
<stop stop-color="#0077D2"/>
<stop offset="1" stop-color="#0B59A2"/>
</linearGradient>
<linearGradient id="paint22_linear_204_6" x1="325.985" y1="222.881" x2="359.289" y2="258.269" gradientUnits="userSpaceOnUse">
<stop stop-color="#0077D2"/>
<stop offset="1" stop-color="#0B59A2"/>
</linearGradient>
<linearGradient id="paint23_linear_204_6" x1="343.246" y1="206.637" x2="376.549" y2="242.025" gradientUnits="userSpaceOnUse">
<stop stop-color="#0077D2"/>
<stop offset="1" stop-color="#0B59A2"/>
</linearGradient>
<linearGradient id="paint24_linear_204_6" x1="333.229" y1="216.063" x2="366.532" y2="251.451" gradientUnits="userSpaceOnUse">
<stop stop-color="#0077D2"/>
<stop offset="1" stop-color="#0B59A2"/>
</linearGradient>
<linearGradient id="paint25_linear_204_6" x1="328.568" y1="220.449" x2="361.872" y2="255.837" gradientUnits="userSpaceOnUse">
<stop stop-color="#0077D2"/>
<stop offset="1" stop-color="#0B59A2"/>
</linearGradient>
<linearGradient id="paint26_linear_204_6" x1="336.589" y1="212.901" x2="369.893" y2="248.289" gradientUnits="userSpaceOnUse">
<stop stop-color="#0077D2"/>
<stop offset="1" stop-color="#0B59A2"/>
</linearGradient>
<linearGradient id="paint27_linear_204_6" x1="324.149" y1="224.608" x2="357.453" y2="259.996" gradientUnits="userSpaceOnUse">
<stop stop-color="#0077D2"/>
<stop offset="1" stop-color="#0B59A2"/>
</linearGradient>
<linearGradient id="paint28_linear_204_6" x1="335.33" y1="214.086" x2="368.633" y2="249.474" gradientUnits="userSpaceOnUse">
<stop stop-color="#0077D2"/>
<stop offset="1" stop-color="#0B59A2"/>
</linearGradient>
<linearGradient id="paint29_linear_204_6" x1="329.448" y1="219.622" x2="362.75" y2="255.01" gradientUnits="userSpaceOnUse">
<stop stop-color="#0077D2"/>
<stop offset="1" stop-color="#0B59A2"/>
</linearGradient>
<linearGradient id="paint30_linear_204_6" x1="553.433" y1="711.271" x2="525.47" y2="751.736" gradientUnits="userSpaceOnUse">
<stop stop-color="#00FFA3"/>
<stop offset="1" stop-color="#DC1FFF"/>
</linearGradient>
<linearGradient id="paint31_linear_204_6" x1="545.331" y1="705.672" x2="517.367" y2="746.136" gradientUnits="userSpaceOnUse">
<stop stop-color="#00FFA3"/>
<stop offset="1" stop-color="#DC1FFF"/>
</linearGradient>
<linearGradient id="paint32_linear_204_6" x1="549.356" y1="708.454" x2="521.393" y2="748.918" gradientUnits="userSpaceOnUse">
<stop stop-color="#00FFA3"/>
<stop offset="1" stop-color="#DC1FFF"/>
</linearGradient>
<clipPath id="clip0_204_6">
<rect width="50.3254" height="49.3083" fill="white" transform="translate(112.492 651.643)"/>
</clipPath>
<clipPath id="clip1_204_6">
<rect width="33.5503" height="34.8059" fill="white" transform="translate(522.989 715.454)"/>
</clipPath>
<clipPath id="clip2_204_6">
<rect width="50.3254" height="45.441" fill="white" transform="translate(291.098 740.591)"/>
</clipPath>
</defs>
</svg>
